<?xml version="1.0" encoding="UTF-8"?>
<!DOCTYPE svg PUBLIC "-//W3C//DTD SVG 1.1//EN" "http://www.w3.org/Graphics/SVG/1.1/DTD/svg11.dtd">
<svg xmlns="http://www.w3.org/2000/svg" version="1.1" width="512px" height="512px" style="shape-rendering:geometricPrecision; text-rendering:geometricPrecision; image-rendering:optimizeQuality; fill-rule:evenodd; clip-rule:evenodd" xmlns:xlink="http://www.w3.org/1999/xlink">
<g><path style="opacity:0.995" fill="#7ff67f" d="M 232.5,-0.5 C 247.833,-0.5 263.167,-0.5 278.5,-0.5C 368.144,10.3879 435.644,54.7213 481,132.5C 497.695,163.971 507.861,197.304 511.5,232.5C 511.5,244.167 511.5,255.833 511.5,267.5C 457.701,214.201 404.035,160.701 350.5,107C 349.906,106.536 349.239,106.369 348.5,106.5C 325.069,76.2835 294.069,60.6169 255.5,59.5C 203.462,62.2622 167.295,87.5955 147,135.5C 145.207,141.463 143.541,147.463 142,153.5C 140.858,187.138 140.358,220.805 140.5,254.5C 140.667,285.833 140.833,317.167 141,348.5C 145.182,382.221 160.682,409.221 187.5,429.5C 187.369,430.239 187.536,430.906 188,431.5C 214.702,458.035 241.202,484.701 267.5,511.5C 255.833,511.5 244.167,511.5 232.5,511.5C 142.856,500.612 75.3562,456.279 30,378.5C 13.3053,347.029 3.1386,313.696 -0.5,278.5C -0.5,263.167 -0.5,247.833 -0.5,232.5C 10.3875,142.857 54.7208,75.3573 132.5,30C 163.971,13.3053 197.304,3.1386 232.5,-0.5 Z"/></g>
<g><path style="opacity:1" fill="#44417d" d="M 255.5,59.5 C 255.5,82.5 255.5,105.5 255.5,128.5C 229.464,130.205 214.13,143.872 209.5,169.5C 208.503,186.659 208.17,203.992 208.5,221.5C 224.167,221.5 239.833,221.5 255.5,221.5C 255.5,244.167 255.5,266.833 255.5,289.5C 239.833,289.5 224.167,289.5 208.5,289.5C 208.17,306.675 208.503,323.675 209.5,340.5C 213.712,366.713 229.046,380.713 255.5,382.5C 255.5,405.5 255.5,428.5 255.5,451.5C 230.508,451.169 207.841,443.836 187.5,429.5C 160.682,409.221 145.182,382.221 141,348.5C 140.833,317.167 140.667,285.833 140.5,254.5C 140.358,220.805 140.858,187.138 142,153.5C 143.541,147.463 145.207,141.463 147,135.5C 167.295,87.5955 203.462,62.2622 255.5,59.5 Z"/></g>
<g><path style="opacity:1" fill="#212a4c" d="M 255.5,59.5 C 294.069,60.6169 325.069,76.2835 348.5,106.5C 373.917,144.092 377.417,183.759 359,225.5C 338.253,264.473 305.753,285.807 261.5,289.5C 259.5,289.5 257.5,289.5 255.5,289.5C 255.5,266.833 255.5,244.167 255.5,221.5C 257.415,221.784 259.081,221.451 260.5,220.5C 281.66,217.176 295.16,205.176 301,184.5C 304.063,160.455 294.896,142.955 273.5,132C 267.654,129.997 261.654,128.831 255.5,128.5C 255.5,105.5 255.5,82.5 255.5,59.5 Z"/></g>
<g><path style="opacity:1" fill="#39e56d" d="M 348.5,106.5 C 349.239,106.369 349.906,106.536 350.5,107C 404.035,160.701 457.701,214.201 511.5,267.5C 511.5,271.167 511.5,274.833 511.5,278.5C 500.612,368.144 456.279,435.644 378.5,481C 347.029,497.695 313.696,507.861 278.5,511.5C 274.833,511.5 271.167,511.5 267.5,511.5C 241.202,484.701 214.702,458.035 188,431.5C 187.536,430.906 187.369,430.239 187.5,429.5C 207.841,443.836 230.508,451.169 255.5,451.5C 298.692,449.664 331.858,430.664 355,394.5C 366.735,372.994 371.902,349.994 370.5,325.5C 347.673,324.502 324.673,324.169 301.5,324.5C 301.5,329.833 301.5,335.167 301.5,340.5C 297.32,366.679 281.986,380.679 255.5,382.5C 229.046,380.713 213.712,366.713 209.5,340.5C 209.5,323.833 209.5,307.167 209.5,290.5C 227.008,290.83 244.341,290.497 261.5,289.5C 305.753,285.807 338.253,264.473 359,225.5C 377.417,183.759 373.917,144.092 348.5,106.5 Z"/></g>
<g><path style="opacity:1" fill="#39e56c" d="M 255.5,128.5 C 261.654,128.831 267.654,129.997 273.5,132C 294.896,142.955 304.063,160.455 301,184.5C 295.16,205.176 281.66,217.176 260.5,220.5C 243.5,220.5 226.5,220.5 209.5,220.5C 209.5,203.5 209.5,186.5 209.5,169.5C 214.13,143.872 229.464,130.205 255.5,128.5 Z"/></g>
<g><path style="opacity:1" fill="#3f8a74" d="M 209.5,169.5 C 209.5,186.5 209.5,203.5 209.5,220.5C 226.5,220.5 243.5,220.5 260.5,220.5C 259.081,221.451 257.415,221.784 255.5,221.5C 239.833,221.5 224.167,221.5 208.5,221.5C 208.17,203.992 208.503,186.659 209.5,169.5 Z"/></g>
<g><path style="opacity:1" fill="#408076" d="M 255.5,289.5 C 257.5,289.5 259.5,289.5 261.5,289.5C 244.341,290.497 227.008,290.83 209.5,290.5C 209.5,307.167 209.5,323.833 209.5,340.5C 208.503,323.675 208.17,306.675 208.5,289.5C 224.167,289.5 239.833,289.5 255.5,289.5 Z"/></g>
<g><path style="opacity:1" fill="#275d55" d="M 370.5,325.5 C 347.833,325.5 325.167,325.5 302.5,325.5C 302.821,330.695 302.487,335.695 301.5,340.5C 301.5,335.167 301.5,329.833 301.5,324.5C 324.673,324.169 347.673,324.502 370.5,325.5 Z"/></g>
<g><path style="opacity:1" fill="#212a4c" d="M 370.5,325.5 C 371.902,349.994 366.735,372.994 355,394.5C 331.858,430.664 298.692,449.664 255.5,451.5C 255.5,428.5 255.5,405.5 255.5,382.5C 281.986,380.679 297.32,366.679 301.5,340.5C 302.487,335.695 302.821,330.695 302.5,325.5C 325.167,325.5 347.833,325.5 370.5,325.5 Z"/></g>
</svg>
