<?xml version="1.0" encoding="UTF-8"?>
<!DOCTYPE svg PUBLIC "-//W3C//DTD SVG 1.1//EN" "http://www.w3.org/Graphics/SVG/1.1/DTD/svg11.dtd">
<svg xmlns="http://www.w3.org/2000/svg" version="1.1" width="512px" height="512px" style="shape-rendering:geometricPrecision; text-rendering:geometricPrecision; image-rendering:optimizeQuality; fill-rule:evenodd; clip-rule:evenodd" xmlns:xlink="http://www.w3.org/1999/xlink">
<g><path style="opacity:0.993" fill="#262964" d="M 234.5,16.5 C 326.126,11.8348 398.959,46.1681 453,119.5C 499.598,192.144 507.264,268.811 476,349.5C 441.977,424.517 384.811,471.351 304.5,490C 210.729,505.97 132.562,478.47 70,407.5C 18.8344,341.338 4.16776,267.672 26,186.5C 48.6327,115.866 93.7994,65.3662 161.5,35C 185.047,25.1973 209.38,19.0307 234.5,16.5 Z"/></g>
<g><path style="opacity:1" fill="#555abd" d="M 239.5,50.5 C 333.276,48.6116 401.11,89.2783 443,172.5C 474.391,252.297 463.058,325.297 409,391.5C 358.277,445.189 296.11,467.356 222.5,458C 151.753,444.231 100.586,405.064 69,340.5C 36.1956,260.124 47.1956,186.457 102,119.5C 139.205,79.3143 185.038,56.3143 239.5,50.5 Z"/></g>
<g><path style="opacity:1" fill="#fefefe" d="M 254.5,119.5 C 256.074,119.937 257.241,120.937 258,122.5C 284.833,167.5 311.667,212.5 338.5,257.5C 311.035,274.404 283.368,291.07 255.5,307.5C 227.632,291.07 199.965,274.404 172.5,257.5C 200.36,211.775 227.693,165.775 254.5,119.5 Z"/></g>
<g><path style="opacity:1" fill="#fdfdfe" d="M 172.5,274.5 C 200.304,290.57 227.97,306.903 255.5,323.5C 283.077,306.571 310.743,290.571 338.5,275.5C 310.833,314.167 283.167,352.833 255.5,391.5C 227.395,352.742 199.728,313.742 172.5,274.5 Z"/></g>
</svg>
