<?xml version="1.0" encoding="UTF-8"?>
<!DOCTYPE svg PUBLIC "-//W3C//DTD SVG 1.1//EN" "http://www.w3.org/Graphics/SVG/1.1/DTD/svg11.dtd">
<svg xmlns="http://www.w3.org/2000/svg" version="1.1" width="512px" height="512px" style="shape-rendering:geometricPrecision; text-rendering:geometricPrecision; image-rendering:optimizeQuality; fill-rule:evenodd; clip-rule:evenodd" xmlns:xlink="http://www.w3.org/1999/xlink">
<g><path style="opacity:0.995" fill="#426179" d="M 232.5,-0.5 C 247.833,-0.5 263.167,-0.5 278.5,-0.5C 368.144,10.3879 435.644,54.7213 481,132.5C 497.695,163.971 507.861,197.304 511.5,232.5C 511.5,239.833 511.5,247.167 511.5,254.5C 471.5,214.833 431.5,175.167 391.5,135.5C 363.478,104.087 330.145,96.9201 291.5,114C 286.631,116.929 281.965,120.096 277.5,123.5C 246.568,99.9201 214.568,98.4201 181.5,119C 178.354,121.312 175.354,123.812 172.5,126.5C 157.941,114.556 141.275,107.556 122.5,105.5C 116.69,104.51 110.69,104.177 104.5,104.5C 104.5,122.167 104.5,139.833 104.5,157.5C 118.798,172.299 133.298,186.965 148,201.5C 148.499,196.845 148.666,192.179 148.5,187.5C 149.499,260.331 149.833,333.331 149.5,406.5C 184.167,441.5 218.833,476.5 253.5,511.5C 246.5,511.5 239.5,511.5 232.5,511.5C 142.856,500.612 75.3562,456.279 30,378.5C 13.3053,347.029 3.1386,313.696 -0.5,278.5C -0.5,263.167 -0.5,247.833 -0.5,232.5C 10.3875,142.857 54.7208,75.3573 132.5,30C 163.971,13.3053 197.304,3.1386 232.5,-0.5 Z"/></g>
<g><path style="opacity:1" fill="#da7263" d="M 122.5,105.5 C 116.833,105.5 111.167,105.5 105.5,105.5C 105.5,122.833 105.5,140.167 105.5,157.5C 105.167,157.5 104.833,157.5 104.5,157.5C 104.5,139.833 104.5,122.167 104.5,104.5C 110.69,104.177 116.69,104.51 122.5,105.5 Z"/></g>
<g><path style="opacity:1" fill="#f7755f" d="M 277.5,123.5 C 277.5,217.5 277.5,311.5 277.5,405.5C 277.5,405.833 277.5,406.167 277.5,406.5C 268.833,406.5 260.167,406.5 251.5,406.5C 251.667,330.166 251.5,253.833 251,177.5C 247.331,165.148 238.997,158.481 226,157.5C 214.525,158.642 206.858,164.642 203,175.5C 202.5,252.499 202.333,329.499 202.5,406.5C 184.833,406.5 167.167,406.5 149.5,406.5C 149.833,333.331 149.499,260.331 148.5,187.5C 145.619,172.783 136.952,163.283 122.5,159C 116.899,157.783 111.232,157.283 105.5,157.5C 105.5,140.167 105.5,122.833 105.5,105.5C 111.167,105.5 116.833,105.5 122.5,105.5C 141.275,107.556 157.941,114.556 172.5,126.5C 175.354,123.812 178.354,121.312 181.5,119C 214.568,98.4201 246.568,99.9201 277.5,123.5 Z"/></g>
<g><path style="opacity:1" fill="#f45575" d="M 391.5,135.5 C 397.609,145.06 402.109,155.393 405,166.5C 405.497,168.81 405.663,171.143 405.5,173.5C 405.5,250.833 405.5,328.167 405.5,405.5C 388.167,405.5 370.833,405.5 353.5,405.5C 353.667,329.166 353.5,252.833 353,176.5C 349.105,164.381 340.772,158.047 328,157.5C 314.808,159.194 306.974,166.528 304.5,179.5C 303.501,254.665 303.167,329.998 303.5,405.5C 294.833,405.5 286.167,405.5 277.5,405.5C 277.5,311.5 277.5,217.5 277.5,123.5C 281.965,120.096 286.631,116.929 291.5,114C 330.145,96.9201 363.478,104.087 391.5,135.5 Z"/></g>
<g><path style="opacity:1" fill="#44417c" d="M 391.5,135.5 C 431.5,175.167 471.5,214.833 511.5,254.5C 511.5,262.5 511.5,270.5 511.5,278.5C 500.612,368.144 456.279,435.644 378.5,481C 347.029,497.695 313.696,507.861 278.5,511.5C 270.167,511.5 261.833,511.5 253.5,511.5C 218.833,476.5 184.167,441.5 149.5,406.5C 167.167,406.5 184.833,406.5 202.5,406.5C 202.333,329.499 202.5,252.499 203,175.5C 206.858,164.642 214.525,158.642 226,157.5C 238.997,158.481 247.331,165.148 251,177.5C 251.5,253.833 251.667,330.166 251.5,406.5C 260.167,406.5 268.833,406.5 277.5,406.5C 286.5,406.5 295.5,406.5 304.5,406.5C 304.5,330.833 304.5,255.167 304.5,179.5C 306.974,166.528 314.808,159.194 328,157.5C 340.772,158.047 349.105,164.381 353,176.5C 353.5,252.833 353.667,329.166 353.5,405.5C 370.992,406.497 388.659,406.83 406.5,406.5C 406.833,328.665 406.499,250.998 405.5,173.5C 405.663,171.143 405.497,168.81 405,166.5C 402.109,155.393 397.609,145.06 391.5,135.5 Z"/></g>
<g><path style="opacity:1" fill="#46427c" d="M 104.5,157.5 C 104.833,157.5 105.167,157.5 105.5,157.5C 111.232,157.283 116.899,157.783 122.5,159C 136.952,163.283 145.619,172.783 148.5,187.5C 148.666,192.179 148.499,196.845 148,201.5C 133.298,186.965 118.798,172.299 104.5,157.5 Z"/></g>
<g><path style="opacity:1" fill="#d95277" d="M 405.5,173.5 C 406.499,250.998 406.833,328.665 406.5,406.5C 388.659,406.83 370.992,406.497 353.5,405.5C 370.833,405.5 388.167,405.5 405.5,405.5C 405.5,328.167 405.5,250.833 405.5,173.5 Z"/></g>
<g><path style="opacity:1" fill="#cb5177" d="M 304.5,179.5 C 304.5,255.167 304.5,330.833 304.5,406.5C 295.5,406.5 286.5,406.5 277.5,406.5C 277.5,406.167 277.5,405.833 277.5,405.5C 286.167,405.5 294.833,405.5 303.5,405.5C 303.167,329.998 303.501,254.665 304.5,179.5 Z"/></g>
</svg>
