<?xml version="1.0" encoding="UTF-8"?>
<!DOCTYPE svg PUBLIC "-//W3C//DTD SVG 1.1//EN" "http://www.w3.org/Graphics/SVG/1.1/DTD/svg11.dtd">
<svg xmlns="http://www.w3.org/2000/svg" version="1.1" width="512px" height="512px" style="shape-rendering:geometricPrecision; text-rendering:geometricPrecision; image-rendering:optimizeQuality; fill-rule:evenodd; clip-rule:evenodd" xmlns:xlink="http://www.w3.org/1999/xlink">
<g><path style="opacity:0.998" fill="#a2d3fe" d="M 232.5,-0.5 C 247.833,-0.5 263.167,-0.5 278.5,-0.5C 368.144,10.3879 435.644,54.7213 481,132.5C 497.695,163.971 507.861,197.304 511.5,232.5C 511.5,247.833 511.5,263.167 511.5,278.5C 510.179,287.037 508.846,295.703 507.5,304.5C 460.5,257.833 413.5,211.167 366.5,164.5C 332.971,142.44 295.971,131.44 255.5,131.5C 220.454,129.626 189.954,140.293 164,163.5C 138.208,193.214 134.541,225.547 153,260.5C 158.031,266.697 163.531,272.364 169.5,277.5C 181.785,290.119 194.118,302.786 206.5,315.5C 202.422,314.298 198.422,312.798 194.5,311C 185.654,306.25 176.987,301.584 168.5,297C 156.293,317.916 143.959,338.749 131.5,359.5C 133.006,361.401 134.673,363.068 136.5,364.5C 184.057,412.557 231.89,460.557 280,508.5C 280.464,509.094 280.631,509.761 280.5,510.5C 279.508,510.328 278.842,510.662 278.5,511.5C 263.167,511.5 247.833,511.5 232.5,511.5C 142.856,500.612 75.3562,456.279 30,378.5C 13.3053,347.029 3.1386,313.696 -0.5,278.5C -0.5,263.167 -0.5,247.833 -0.5,232.5C 10.3875,142.857 54.7208,75.3573 132.5,30C 163.971,13.3053 197.304,3.1386 232.5,-0.5 Z"/></g>
<g><path style="opacity:1" fill="#555a66" d="M 255.5,131.5 C 255.5,154.167 255.5,176.833 255.5,199.5C 247.482,198.628 240.316,200.628 234,205.5C 231.294,210.775 232.461,214.941 237.5,218C 244.029,220.796 250.695,222.629 257.5,223.5C 255.509,249.145 254.842,275.145 255.5,301.5C 232.863,300.1 210.863,295.6 189.5,288C 182.68,284.757 176.013,281.257 169.5,277.5C 163.531,272.364 158.031,266.697 153,260.5C 134.541,225.547 138.208,193.214 164,163.5C 189.954,140.293 220.454,129.626 255.5,131.5 Z"/></g>
<g><path style="opacity:1" fill="#333940" d="M 255.5,131.5 C 295.971,131.44 332.971,142.44 366.5,164.5C 354.693,184.77 342.86,205.104 331,225.5C 308.742,208.58 283.575,199.913 255.5,199.5C 255.5,176.833 255.5,154.167 255.5,131.5 Z"/></g>
<g><path style="opacity:1" fill="#65b0fb" d="M 366.5,164.5 C 413.5,211.167 460.5,257.833 507.5,304.5C 487.771,392.148 437.104,454.648 355.5,492C 331.464,502.092 306.464,508.259 280.5,510.5C 280.631,509.761 280.464,509.094 280,508.5C 231.89,460.557 184.057,412.557 136.5,364.5C 172.734,387.479 212.401,398.812 255.5,398.5C 287.706,399.867 317.372,392.033 344.5,375C 376.429,348.942 385.262,316.442 371,277.5C 363.11,261.276 350.943,249.443 334.5,242C 309.778,232.013 284.111,225.847 257.5,223.5C 250.695,222.629 244.029,220.796 237.5,218C 232.461,214.941 231.294,210.775 234,205.5C 240.316,200.628 247.482,198.628 255.5,199.5C 283.575,199.913 308.742,208.58 331,225.5C 342.86,205.104 354.693,184.77 366.5,164.5 Z"/></g>
<g><path style="opacity:1" fill="#333940" d="M 257.5,223.5 C 284.111,225.847 309.778,232.013 334.5,242C 350.943,249.443 363.11,261.276 371,277.5C 385.262,316.442 376.429,348.942 344.5,375C 317.372,392.033 287.706,399.867 255.5,398.5C 255.5,375.167 255.5,351.833 255.5,328.5C 264.104,329.032 272.437,327.866 280.5,325C 285.732,322.367 287.565,318.201 286,312.5C 284.062,309.894 281.562,308.061 278.5,307C 270.751,304.955 263.085,303.122 255.5,301.5C 254.842,275.145 255.509,249.145 257.5,223.5 Z"/></g>
<g><path style="opacity:1" fill="#64aff9" d="M 169.5,277.5 C 176.013,281.257 182.68,284.757 189.5,288C 210.863,295.6 232.863,300.1 255.5,301.5C 263.085,303.122 270.751,304.955 278.5,307C 281.562,308.061 284.062,309.894 286,312.5C 287.565,318.201 285.732,322.367 280.5,325C 272.437,327.866 264.104,329.032 255.5,328.5C 238.357,326.799 222.024,322.466 206.5,315.5C 194.118,302.786 181.785,290.119 169.5,277.5 Z"/></g>
<g><path style="opacity:1" fill="#555a66" d="M 206.5,315.5 C 222.024,322.466 238.357,326.799 255.5,328.5C 255.5,351.833 255.5,375.167 255.5,398.5C 212.401,398.812 172.734,387.479 136.5,364.5C 134.673,363.068 133.006,361.401 131.5,359.5C 143.959,338.749 156.293,317.916 168.5,297C 176.987,301.584 185.654,306.25 194.5,311C 198.422,312.798 202.422,314.298 206.5,315.5 Z"/></g>
</svg>
